<svg viewBox="0 0 20 20" fill="none" xmlns="http://www.w3.org/2000/svg">
<path d="M19.8658 17.8596C18.4484 15.4179 16.1796 13.5852 13.4943 12.713C14.7814 11.9477 15.7816 10.7809 16.3413 9.39193C16.901 8.00298 16.9891 6.4687 16.5923 5.02478C16.1954 3.58087 15.3354 2.30719 14.1445 1.39942C12.9535 0.49165 11.4975 0 10 0C8.50253 0 7.04648 0.49165 5.85554 1.39942C4.66459 2.30719 3.80462 3.58087 3.40774 5.02478C3.01086 6.4687 3.09903 8.00298 3.65869 9.39193C4.21836 10.7809 5.21857 11.9477 6.50566 12.713C3.82043 13.5852 1.55162 15.4179 0.134191 17.8596C0.0747392 17.9458 0.0337685 18.0434 0.0138537 18.1463C-0.00606115 18.2491 -0.00448986 18.355 0.0184688 18.4572C0.0414274 18.5594 0.0852773 18.6558 0.147263 18.7402C0.209248 18.8247 0.28803 18.8954 0.378657 18.9479C0.469284 19.0004 0.569798 19.0337 0.673882 19.0455C0.777967 19.0573 0.883373 19.0475 0.983476 19.0166C1.08358 18.9858 1.17622 18.9345 1.25557 18.8661C1.33492 18.7977 1.39927 18.7137 1.44457 18.6192C2.31282 17.1189 3.56034 15.8733 5.06198 15.0074C6.56361 14.1414 8.26657 13.6856 10 13.6856C11.7334 13.6856 13.4364 14.1414 14.938 15.0074C16.4397 15.8733 17.6872 17.1189 18.5554 18.6192C18.6007 18.7137 18.6651 18.7977 18.7444 18.8661C18.8238 18.9345 18.9164 18.9858 19.0165 19.0166C19.1166 19.0475 19.222 19.0573 19.3261 19.0455C19.4302 19.0337 19.5307 19.0004 19.6213 18.9479C19.712 18.8954 19.7908 18.8247 19.8527 18.7402C19.9147 18.6558 19.9586 18.5594 19.9815 18.4572C20.0045 18.355 20.0061 18.2491 19.9861 18.1463C19.9662 18.0434 19.9253 17.9458 19.8658 17.8596ZM4.68253 6.84483C4.68253 5.79313 4.99439 4.76505 5.57868 3.8906C6.16298 3.01614 6.99345 2.33459 7.96509 1.93212C8.93673 1.52966 10.0059 1.42435 11.0374 1.62953C12.0689 1.8347 13.0164 2.34114 13.76 3.08481C14.5037 3.82847 15.0101 4.77595 15.2153 5.80744C15.4205 6.83893 15.3152 7.90809 14.9127 8.87973C14.5102 9.85137 13.8287 10.6819 12.9542 11.2661C12.0798 11.8504 11.0517 12.1623 10 12.1623C8.58972 12.1623 7.2372 11.6021 6.23998 10.6048C5.24276 9.60763 4.68253 8.25511 4.68253 6.84483Z" fill="#333333"/>
</svg>
